HIERARCHY
ROOT SpineBase
{
  OFFSET 0.000000 0.000000 0.000000
  CHANNELS 6 Xposition Yposition Zposition Zrotation Xrotation Yrotation
  JOINT SpineMid
  {
    OFFSET -0.000000 33.642556 0.000000
    CHANNELS 3 Zrotation Xrotation Yrotation
    JOINT SpineShoulder
    {
      OFFSET 0.066837 24.913272 -0.969151
      CHANNELS 3 Zrotation Xrotation Yrotation
      JOINT Neck
      {
        OFFSET 0.034975 8.204428 -0.679293
        CHANNELS 3 Zrotation Xrotation Yrotation
        JOINT Head
        {
          OFFSET 0.304503 12.590653 6.981834
          CHANNELS 3 Zrotation Xrotation Yrotation
          End Site
          {
            OFFSET 0 0 0
          }
        }
      }
      JOINT ShoulderLeft
      {
        OFFSET 0.356035 -5.940800 -14.250822
        CHANNELS 3 Zrotation Xrotation Yrotation
        JOINT ElbowLeft
        {
          OFFSET 7.452100 -29.247718 -5.959329
          CHANNELS 3 Zrotation Xrotation Yrotation
          JOINT WristLeft
          {
            OFFSET 10.401388 -20.483266 -0.306824
            CHANNELS 3 Zrotation Xrotation Yrotation
            JOINT HandLeft
            {
              OFFSET 0.998495 -9.231173 3.682985
              CHANNELS 3 Zrotation Xrotation Yrotation
              JOINT HandTipLeft
              {
                OFFSET 3.008683 -7.143162 2.050578
                CHANNELS 3 Zrotation Xrotation Yrotation
                End Site
                {
                  OFFSET 0 0 0
                }
              }
              JOINT ThumbLeft
              {
                OFFSET -4.315962 -0.568415 3.392529
                CHANNELS 3 Zrotation Xrotation Yrotation
                End Site
                {
                  OFFSET 0 0 0
                }
              }
            }
          }
        }
      }
      JOINT ShoulderRight
      {
        OFFSET 8.054844 -2.751596 10.172712
        CHANNELS 3 Zrotation Xrotation Yrotation
        JOINT ElbowRight
        {
          OFFSET -15.209692 -25.825927 3.174827
          CHANNELS 3 Zrotation Xrotation Yrotation
          JOINT WristRight
          {
            OFFSET -7.201602 -14.073401 -26.835172
            CHANNELS 3 Zrotation Xrotation Yrotation
            JOINT HandRight
            {
              OFFSET 1.597780 -8.280718 4.915531
              CHANNELS 3 Zrotation Xrotation Yrotation
              JOINT HandTipRight
              {
                OFFSET -0.566299 0.178482 -2.320373
                CHANNELS 3 Zrotation Xrotation Yrotation
                End Site
                {
                  OFFSET 0 0 0
                }
              }
              JOINT ThumbRight
              {
                OFFSET -1.328940 0.172275 -3.550875
                CHANNELS 3 Zrotation Xrotation Yrotation
                End Site
                {
                  OFFSET 0 0 0
                }
              }
            }
          }
        }
      }
    }
  }
  JOINT HipLeft
  {
    OFFSET -1.829875 0.804264 -10.694041
    CHANNELS 3 Zrotation Xrotation Yrotation
    JOINT KneeLeft
    {
      OFFSET 8.495350 -35.071151 5.395014
      CHANNELS 3 Zrotation Xrotation Yrotation
      JOINT AnkleLeft
      {
        OFFSET -2.655761 -35.936069 5.806015
        CHANNELS 3 Zrotation Xrotation Yrotation
        JOINT FootLeft
        {
          OFFSET 4.311641 -6.563489 -1.026274
          CHANNELS 3 Zrotation Xrotation Yrotation
          End Site
          {
            OFFSET 0 0 0
          }
        }
      }
    }
  }
  JOINT HipRight
  {
    OFFSET 1.913808 0.658461 3.106915
    CHANNELS 3 Zrotation Xrotation Yrotation
    JOINT KneeRight
    {
      OFFSET 17.112386 -32.811208 9.085957
      CHANNELS 3 Zrotation Xrotation Yrotation
      JOINT AnkleRight
      {
        OFFSET -9.652190 -41.244095 7.345209
        CHANNELS 3 Zrotation Xrotation Yrotation
        JOINT FootRight
        {
          OFFSET 0.225158 -7.554050 2.478661
          CHANNELS 3 Zrotation Xrotation Yrotation
          End Site
          {
            OFFSET 0 0 0
          }
        }
      }
    }
  }
}
MOTION
Frames: 10
Frame Time: 0.033333
-4.116631 80.950892 301.892386 -0.000000 0.000000 -74.823023 -0.000000 0.000000 74.823023 -0.000000 0.000000 0.000000 -0.000000 0.000000 0.000000 0.000000 0.000000 0.000000 -0.000000 0.000000 0.000000 -0.000000 0.000000 0.000000 -0.000000 0.000000 0.000000 -0.000000 0.000000 0.000000 0.000000 0.000000 0.000000 0.000000 0.000000 0.000000 -0.000000 0.000000 0.000000 -0.000000 0.000000 0.000000 -0.000000 0.000000 0.000000 -0.000000 0.000000 0.000000 0.000000 0.000000 0.000000 0.000000 0.000000 0.000000 -0.000000 0.000000 74.823023 -0.000000 0.000000 0.000000 -0.000000 0.000000 0.000000 0.000000 0.000000 0.000000 -0.000000 0.000000 74.823023 -0.000000 0.000000 0.000000 -0.000000 0.000000 0.000000 0.000000 0.000000 0.000000
-4.094727 80.996723 301.536911 0.037655 0.036019 -75.282217 0.025270 -0.045571 75.282215 -0.000000 0.000000 0.000000 -0.000000 0.000000 0.000000 0.000000 0.000000 0.000000 -0.000000 0.000000 0.000000 -1.563826 -0.312240 -0.140369 -0.802590 0.373313 -0.793325 2.366198 -0.024291 0.939856 0.000000 0.000000 0.000000 0.000000 0.000000 0.000000 -0.000000 0.000000 0.000000 -0.000000 0.000000 0.000000 -0.000000 0.000000 0.000000 0.424746 -1.757502 -0.039846 0.000000 0.000000 0.000000 0.000000 0.000000 0.000000 0.025270 -0.045571 75.282215 -0.000000 0.000000 0.000000 14.607399 11.770693 3.587975 0.000000 0.000000 0.000000 0.025270 -0.045571 75.282215 0.525369 -0.859408 0.298553 21.038552 18.285863 3.862063 0.000000 0.000000 0.000000
-4.089623 81.033355 301.224940 0.051303 0.052495 -75.621637 0.038111 -0.062732 75.621635 -0.000000 0.000000 0.000000 -0.000000 0.000000 0.000000 0.000000 0.000000 0.000000 -1.279086 -0.124548 0.228204 -1.627791 -0.368633 -0.450347 -1.558026 0.625241 -1.530128 5.217804 0.809224 2.320446 0.000000 0.000000 0.000000 0.000000 0.000000 0.000000 -0.000000 0.000000 0.000000 -0.000000 0.000000 0.000000 -0.000000 0.000000 0.000000 0.910309 -3.927589 -0.408275 0.000000 0.000000 0.000000 0.000000 0.000000 0.000000 0.953013 0.445493 75.545343 -1.472783 0.265921 -0.000446 24.300185 19.662894 4.135259 0.000000 0.000000 0.000000 -0.306794 -1.096141 75.356261 2.061976 -1.658885 0.821686 41.553973 34.250398 0.688804 0.000000 0.000000 0.000000
-4.101318 81.060788 300.956474 0.040910 0.049398 -75.852731 0.037901 -0.051743 75.852730 -0.000000 0.000000 0.000000 -0.000000 0.000000 0.000000 0.000000 0.000000 0.000000 -1.828406 -0.127056 0.339632 -2.177769 -0.420639 -0.583225 -2.101126 0.730928 -2.153672 7.100551 1.320933 3.221258 0.000000 0.000000 0.000000 0.000000 0.000000 0.000000 0.034715 -0.781113 0.464225 -0.028388 0.781369 -0.463794 0.631938 -1.312205 0.128155 0.811530 -5.319050 -1.276950 0.000000 0.000000 0.000000 0.000000 0.000000 0.000000 1.303525 0.700701 75.753008 -2.061824 0.343995 0.000783 29.810383 23.976108 3.821157 0.000000 0.000000 0.000000 -0.420474 -1.439382 75.495574 2.798196 -2.285476 1.130266 57.399415 43.059837 -5.794543 0.000000 0.000000 0.000000
-4.129812 81.079020 300.731512 0.006460 0.026715 -75.983631 0.024355 -0.012738 75.983632 -0.000000 0.000000 0.000000 -0.000000 0.000000 0.000000 0.000000 0.000000 0.000000 -2.316224 -0.088947 0.449929 -2.531548 -0.387231 -0.650199 -2.262751 0.664323 -2.604323 8.273339 1.882557 3.860563 0.000000 0.000000 0.000000 0.000000 0.000000 0.000000 0.044484 -0.961070 0.571396 -0.034903 0.961466 -0.570730 2.455966 -2.296805 1.047298 -0.537356 -7.726065 -3.300318 0.000000 0.000000 0.000000 0.000000 0.000000 0.000000 1.568843 0.972612 75.870620 -2.552009 0.383273 -0.000498 32.800229 26.147634 3.412248 0.000000 0.000000 0.000000 -0.511966 -1.644845 75.563179 3.335226 -2.782622 1.367411 68.202003 47.227750 -11.679930 0.000000 0.000000 0.000000
-4.175106 81.088053 300.550056 -0.052040 -0.015553 -76.019735 -0.002520 0.054255 76.019729 -0.000000 0.000000 0.000000 -0.000000 0.000000 0.000000 0.000000 0.000000 0.000000 -2.741718 -0.009752 0.559440 -2.682726 -0.273274 -0.650980 -1.900541 0.404924 -2.825857 8.599351 2.479750 4.186709 0.000000 0.000000 0.000000 0.000000 0.000000 0.000000 0.052920 -1.100454 0.654524 -0.040353 1.100987 -0.653628 5.096181 -3.502547 2.441381 -2.844757 -10.758276 -6.233098 0.000000 0.000000 0.000000 0.000000 0.000000 0.000000 1.748723 1.258783 75.903990 -2.943106 0.382512 -0.006249 33.862269 26.778891 3.156706 0.000000 0.000000 0.000000 -0.582740 -1.712040 75.564950 3.671711 -3.153653 1.531415 75.063077 49.189527 -15.897914 0.000000 0.000000 0.000000
-4.270866 81.092446 300.421196 -0.170819 -0.097671 -75.880792 -0.053050 0.189485 75.880734 -0.000000 0.000000 0.000000 -0.000000 0.000000 0.000000 0.000000 0.000000 0.000000 -3.146545 0.199420 0.702226 -2.478793 -0.108309 -0.589135 -1.450042 -0.057570 -2.966815 8.444418 3.740784 4.619524 0.000000 0.000000 0.000000 0.000000 0.000000 0.000000 0.053009 -1.180847 0.701818 -0.038551 1.181407 -0.700875 8.144372 -3.417689 4.289535 -5.715826 -19.592219 -10.618314 0.000000 0.000000 0.000000 0.000000 0.000000 0.000000 1.834388 1.663501 75.785221 -3.324087 0.369018 -0.038077 31.651968 25.153718 3.422802 0.000000 0.000000 0.000000 -0.720915 -1.546749 75.474677 3.796496 -3.657409 1.618130 80.406924 47.584277 -16.164676 0.000000 0.000000 0.000000
-4.404100 81.068138 300.388030 -0.335353 -0.229837 -75.580343 -0.139086 0.382023 75.580134 -0.000000 0.000000 0.000000 -0.000000 0.000000 0.000000 0.000000 0.000000 0.000000 -3.428691 0.404692 0.819689 -2.152293 0.109762 -0.472679 -0.153001 -0.689204 -2.694701 6.576864 4.983170 4.472721 0.000000 0.000000 0.000000 0.000000 0.000000 0.000000 0.059353 -1.218746 0.724976 -0.043939 1.219399 -0.723877 15.757298 -8.299638 8.360216 -14.778668 -23.779403 -18.892462 0.000000 0.000000 0.000000 0.000000 0.000000 0.000000 1.709042 2.135515 75.544041 -3.586459 0.183485 -0.103965 30.883438 24.233169 3.330133 0.000000 0.000000 0.000000 -0.687785 -1.081050 75.231075 3.384478 -3.400266 1.487117 80.950222 48.559024 -17.148215 0.000000 0.000000 0.000000
-4.476886 81.042797 300.318058 -0.443961 -0.302110 -75.419783 -0.180618 0.505715 75.419410 -0.000000 0.000000 0.000000 -0.000000 0.000000 0.000000 0.000000 0.000000 0.000000 -3.647314 0.592495 0.919707 -1.742263 0.350688 -0.334441 2.052052 -1.483279 -1.974737 4.968865 5.614919 3.888758 0.000000 0.000000 0.000000 0.000000 0.000000 0.000000 0.067709 -1.223806 0.729098 -0.052144 1.224568 -0.727818 20.268422 -8.521433 11.123895 -21.721055 -28.452462 -25.146556 0.000000 0.000000 0.000000 0.000000 0.000000 0.000000 1.695269 2.350078 75.392827 -3.602913 0.095903 -0.101026 22.147868 16.393067 3.120152 0.000000 0.000000 0.000000 -0.668267 -0.672391 75.158824 2.893117 -3.471821 1.373686 77.064933 51.275513 -19.078913 0.000000 0.000000 0.000000
-4.539608 81.018899 300.273534 -0.546022 -0.393080 -75.225360 -0.240835 0.628210 75.224807 -0.000000 0.000000 0.000000 0.628345 -0.608910 -0.331391 0.000000 0.000000 0.000000 -3.795449 0.737808 0.993113 -1.304275 0.627080 -0.173049 5.092087 -1.411078 -0.714155 0.894358 5.086132 2.382907 0.000000 0.000000 0.000000 0.000000 0.000000 0.000000 0.071569 -1.245394 0.742327 -0.055443 1.246216 -0.740946 23.443953 -9.653886 13.019484 -26.872766 -26.705296 -30.585597 0.000000 0.000000 0.000000 0.000000 0.000000 0.000000 1.611781 2.553734 75.217619 -3.524399 -0.038796 -0.097747 14.171483 8.781377 1.639965 0.000000 0.000000 0.000000 -0.599062 -0.502326 74.925814 2.940267 -3.614010 1.499018 75.234480 57.098279 -25.613673 0.000000 0.000000 0.000000
